<svg width="45" height="45" viewBox="0 0 45 45" fill="none" xmlns="http://www.w3.org/2000/svg">
<path d="M32.9651 22.5C32.9651 28.2797 28.2797 32.9651 22.5 32.9651C16.7203 32.9651 12.0349 28.2797 12.0349 22.5C12.0349 16.7203 16.7203 12.0349 22.5 12.0349C28.2797 12.0349 32.9651 16.7203 32.9651 22.5Z" fill="white"/>
<path fill-rule="evenodd" clip-rule="evenodd" d="M22.5 0C23.3669 0 24.0698 0.702816 24.0698 1.56977V5.75581C24.0698 6.62277 23.3669 7.32558 22.5 7.32558C21.6331 7.32558 20.9302 6.62277 20.9302 5.75581V1.56977C20.9302 0.702816 21.6331 0 22.5 0ZM5.06229 5.16158C5.64729 4.52175 6.64022 4.47729 7.28006 5.06229L11.9308 9.31446C12.5706 9.89946 12.6151 10.8924 12.0301 11.5322C11.4451 12.172 10.4521 12.2165 9.8123 11.6315L5.16158 7.37935C4.52175 6.79435 4.47729 5.80142 5.06229 5.16158ZM39.9378 5.16158C40.5228 5.80142 40.4782 6.79435 39.8384 7.37935L35.1877 11.6315C34.5479 12.2165 33.5549 12.172 32.9699 11.5322C32.3849 10.8924 32.4293 9.89946 33.0691 9.31446L37.72 5.06229C38.3599 4.47729 39.3526 4.52175 39.9378 5.16158ZM0 22.5C0 21.6331 0.702816 20.9302 1.56977 20.9302H5.75581C6.62277 20.9302 7.32558 21.6331 7.32558 22.5C7.32558 23.3669 6.62277 24.0698 5.75581 24.0698H1.56977C0.702816 24.0698 0 23.3669 0 22.5ZM37.6744 22.5C37.6744 21.6331 38.3773 20.9302 39.2442 20.9302H43.4302C44.2972 20.9302 45 21.6331 45 22.5C45 23.3669 44.2972 24.0698 43.4302 24.0698H39.2442C38.3773 24.0698 37.6744 23.3669 37.6744 22.5ZM33.0185 33.0179C33.6315 32.4048 34.6255 32.4048 35.2386 33.0179L39.8893 37.6692C40.5023 38.2822 40.5021 39.2762 39.889 39.8893C39.276 40.5023 38.282 40.5021 37.6692 39.889L33.0185 35.2377C32.4054 34.6247 32.4054 33.6309 33.0185 33.0179ZM11.9819 33.0181C12.5949 33.6311 12.5949 34.6251 11.9819 35.2381L7.33069 39.8893C6.71766 40.5023 5.72375 40.5023 5.1107 39.8893C4.49768 39.2762 4.49768 38.2822 5.1107 37.6694L9.76188 33.0181C10.3749 32.405 11.3688 32.405 11.9819 33.0181ZM22.5 37.6744C23.3669 37.6744 24.0698 38.3773 24.0698 39.2442V43.4302C24.0698 44.2972 23.3669 45 22.5 45C21.6331 45 20.9302 44.2972 20.9302 43.4302V39.2442C20.9302 38.3773 21.6331 37.6744 22.5 37.6744Z" fill="white"/>
</svg>
